<?xml version="1.0" encoding="UTF-8" standalone="no"?>
<!-- Created with Inkscape (http://www.inkscape.org/) -->

<svg
   width="1600"
   height="690"
   viewBox="0 0 1600 690"
   version="1.1"
   id="SVGRoot"
   sodipodi:docname="encom_logo_blur.svg"
   inkscape:version="1.1.1 (eb90963e84, 2021-10-02)"
   xmlns:inkscape="http://www.inkscape.org/namespaces/inkscape"
   xmlns:sodipodi="http://sodipodi.sourceforge.net/DTD/sodipodi-0.dtd"
   xmlns="http://www.w3.org/2000/svg"
   xmlns:svg="http://www.w3.org/2000/svg">
  <sodipodi:namedview
     id="namedview10284"
     pagecolor="#ffffff"
     bordercolor="#666666"
     borderopacity="1.0"
     inkscape:pageshadow="2"
     inkscape:pageopacity="0.0"
     inkscape:pagecheckerboard="true"
     inkscape:document-units="px"
     showgrid="false"
     inkscape:zoom="0.75187991"
     inkscape:cx="869.15476"
     inkscape:cy="462.83987"
     inkscape:window-width="1920"
     inkscape:window-height="1043"
     inkscape:window-x="1920"
     inkscape:window-y="0"
     inkscape:window-maximized="1"
     inkscape:current-layer="layer1" />
  <defs
     id="defs10279">
    <filter
       style="color-interpolation-filters:sRGB;"
       inkscape:label="Blur"
       id="filter11426"
       x="-0.86963433"
       y="-0.099168227"
       width="2.7392687"
       height="1.1983365">
      <feGaussianBlur
         stdDeviation="3 3"
         result="blur"
         id="feGaussianBlur11424" />
    </filter>
    <filter
       style="color-interpolation-filters:sRGB;"
       inkscape:label="Blur"
       id="filter11430"
       x="-0.14496982"
       y="-0.099176067"
       width="1.2899396"
       height="1.1983521">
      <feGaussianBlur
         stdDeviation="3 3"
         result="blur"
         id="feGaussianBlur11428" />
    </filter>
    <filter
       style="color-interpolation-filters:sRGB;"
       inkscape:label="Blur"
       id="filter11434"
       x="-0.14498512"
       y="-0.099168227"
       width="1.2899702"
       height="1.1983365">
      <feGaussianBlur
         stdDeviation="3 3"
         result="blur"
         id="feGaussianBlur11432" />
    </filter>
    <filter
       style="color-interpolation-filters:sRGB;"
       inkscape:label="Blur"
       id="filter11438"
       x="-0.15815198"
       y="-0.099176067"
       width="1.316304"
       height="1.1983521">
      <feGaussianBlur
         stdDeviation="3 3"
         result="blur"
         id="feGaussianBlur11436" />
    </filter>
    <filter
       style="color-interpolation-filters:sRGB;"
       inkscape:label="Blur"
       id="filter11442"
       x="-0.1437266"
       y="-0.099168227"
       width="1.2874532"
       height="1.1983365">
      <feGaussianBlur
         stdDeviation="3 3"
         result="blur"
         id="feGaussianBlur11440" />
    </filter>
    <filter
       style="color-interpolation-filters:sRGB;"
       inkscape:label="Blur"
       id="filter11446"
       x="-0.14498538"
       y="-0.099176067"
       width="1.2899708"
       height="1.1983521">
      <feGaussianBlur
         stdDeviation="3 3"
         result="blur"
         id="feGaussianBlur11444" />
    </filter>
    <filter
       style="color-interpolation-filters:sRGB;"
       inkscape:label="Blur"
       id="filter11450"
       x="-0.13382912"
       y="-0.099176067"
       width="1.2676582"
       height="1.1983521">
      <feGaussianBlur
         stdDeviation="3 3"
         result="blur"
         id="feGaussianBlur11448" />
    </filter>
    <filter
       style="color-interpolation-filters:sRGB;"
       inkscape:label="Blur"
       id="filter11454"
       x="-0.14498512"
       y="-0.099168227"
       width="1.2899702"
       height="1.1983365">
      <feGaussianBlur
         stdDeviation="3 3"
         result="blur"
         id="feGaussianBlur11452" />
    </filter>
    <filter
       style="color-interpolation-filters:sRGB;"
       inkscape:label="Blur"
       id="filter11458"
       x="-0.87018528"
       y="-0.099168227"
       width="2.7403706"
       height="1.1983365">
      <feGaussianBlur
         stdDeviation="3 3"
         result="blur"
         id="feGaussianBlur11456" />
    </filter>
    <filter
       style="color-interpolation-filters:sRGB;"
       inkscape:label="Blur"
       id="filter11462"
       x="-0.12086803"
       y="-0.096169733"
       width="1.2417361"
       height="1.1923395">
      <feGaussianBlur
         stdDeviation="3 3"
         result="blur"
         id="feGaussianBlur11460" />
    </filter>
    <filter
       style="color-interpolation-filters:sRGB;"
       inkscape:label="Blur"
       id="filter11466"
       x="-0.14498561"
       y="-0.099176067"
       width="1.2899712"
       height="1.1983521">
      <feGaussianBlur
         stdDeviation="3 3"
         result="blur"
         id="feGaussianBlur11464" />
    </filter>
    <filter
       style="color-interpolation-filters:sRGB;"
       inkscape:label="Blur"
       id="filter11470"
       x="-0.13382925"
       y="-0.099176067"
       width="1.2676585"
       height="1.1983521">
      <feGaussianBlur
         stdDeviation="3 3"
         result="blur"
         id="feGaussianBlur11468" />
    </filter>
    <filter
       style="color-interpolation-filters:sRGB;"
       inkscape:label="Blur"
       id="filter11474"
       x="-0.16738036"
       y="-0.099176067"
       width="1.3347607"
       height="1.1983521">
      <feGaussianBlur
         stdDeviation="3 3"
         result="blur"
         id="feGaussianBlur11472" />
    </filter>
  </defs>
  <g
     inkscape:groupmode="layer"
     id="layer2"
     inkscape:label="Layer 2">
    <path
       style="fill:#b3b3b3;fill-opacity:1;fill-rule:nonzero;stroke:none;stroke-width:1.40464;filter:url(#filter11426)"
       d="m 69.31805,591.90865 h 8.279342 v 72.6039 H 69.31805 Z m 0,0"
       id="path5449-2" />
    <path
       style="fill:#b3b3b3;fill-opacity:1;fill-rule:nonzero;stroke:none;stroke-width:1.40464;filter:url(#filter11430)"
       d="m 159.05972,664.51255 v -72.59816 h 8.27926 l 33.10689,57.19484 v -57.19484 h 8.27936 v 72.59816 h -8.27936 l -33.10689,-57.07997 v 57.07997 z m 0,0"
       id="path5451-0" />
    <path
       style="fill:#b3b3b3;fill-opacity:1;fill-rule:nonzero;stroke:none;stroke-width:1.40464;filter:url(#filter11434)"
       d="m 285.17794,600.03251 v -8.12386 h 49.66027 v 8.12386 H 314.0403 v 64.48004 h -8.27926 v -64.48004 z m 0,0"
       id="path5453-2" />
    <path
       style="fill:#b3b3b3;fill-opacity:1;fill-rule:nonzero;stroke:none;stroke-width:1.40464;filter:url(#filter11438)"
       d="m 411.18618,664.51255 v -72.59816 h 45.52583 v 8.5951 h -37.25169 v 22.21139 h 33.11201 v 8.59511 h -33.11201 v 24.59573 h 37.25169 v 8.60083 z m 0,0"
       id="path5455-2" />
    <path
       style="fill:#b3b3b3;fill-opacity:1;fill-rule:nonzero;stroke:none;stroke-width:1.40464;filter:url(#filter11442)"
       d="m 542.30872,626.5416 h 20.25824 c 3.99289,0 7.22598,-1.2065 9.69413,-3.61392 2.39471,-2.48772 3.59468,-5.74527 3.59468,-9.76704 0,-3.92986 -1.19997,-7.10694 -3.59468,-9.51422 -2.46815,-2.40726 -5.70124,-3.61391 -9.69413,-3.61391 h -20.25824 z m -8.27403,37.97095 v -72.6039 h 28.53227 c 6.53439,0 11.76397,1.95338 15.68352,5.86028 3.91955,3.83205 5.87932,8.96839 5.87932,15.42627 0,3.98721 -0.94311,7.61246 -2.82954,10.88162 -2.03322,3.26916 -4.68468,5.57878 -7.94926,6.93457 2.39471,1.82703 4.28113,4.05634 5.66452,6.67614 1.45149,2.78071 2.17467,5.68218 2.17467,8.70424 l 0.43494,14.0646 c 0,0.79849 0.39821,1.86718 1.19997,3.21738 l 0.43493,0.8388 h -8.27413 l -0.22003,-0.47682 c -0.94322,-1.75233 -1.41487,-3.10253 -1.41487,-4.06208 l -0.43494,-13.61071 c 0,-3.50463 -1.42,-6.37154 -4.24965,-8.59496 -2.61484,-2.07412 -5.73796,-3.10825 -9.36403,-3.10825 h -16.99366 v 29.85282 z m 0,0"
       id="path5457-2" />
    <path
       style="fill:#b3b3b3;fill-opacity:1;fill-rule:nonzero;stroke:none;stroke-width:1.40464;filter:url(#filter11446)"
       d="m 662.54771,664.51255 v -72.59816 h 8.27403 l 33.11212,57.19484 v -57.19484 h 8.27403 v 72.59816 h -8.27403 l -33.11212,-57.07997 v 57.07997 z m 0,0"
       id="path5459-3" />
    <path
       style="fill:#b3b3b3;fill-opacity:1;fill-rule:nonzero;stroke:none;stroke-width:1.40464;filter:url(#filter11450)"
       d="m 806.08396,634.65973 h 19.16824 l -9.57884,-31.40409 z m -17.31319,29.85282 21.56294,-72.59816 h 10.67397 l 21.56304,72.59816 h -8.27936 l -6.63912,-21.73471 h -23.96299 l -6.64445,21.73471 z m 0,0"
       id="path5461-1" />
    <path
       style="fill:#b3b3b3;fill-opacity:1;fill-rule:nonzero;stroke:none;stroke-width:1.40464;filter:url(#filter11454)"
       d="m 914.12395,600.03251 v -8.12386 h 49.66027 v 8.12386 h -20.79791 v 64.48004 h -8.27926 v -64.48004 z m 0,0"
       id="path5463-4" />
    <path
       style="fill:#b3b3b3;fill-opacity:1;fill-rule:nonzero;stroke:none;stroke-width:1.40464;filter:url(#filter11458)"
       d="m 1040.1322,591.90865 h 8.2741 v 72.6039 h -8.2741 z m 0,0"
       id="path5465-4" />
    <path
       style="fill:#b3b3b3;fill-opacity:1;fill-rule:nonzero;stroke:none;stroke-width:1.40464;filter:url(#filter11462)"
       d="m 1134.9881,628.21347 c 0,8.75586 1.9599,15.79971 5.8848,21.13138 3.9194,5.25696 9.1439,7.88265 15.6782,7.88265 6.4663,0 11.6541,-2.62569 15.5735,-7.88265 3.9249,-5.33167 5.8793,-12.37552 5.8793,-21.13138 0,-8.99722 -1.9544,-16.16167 -5.8793,-21.49335 -3.9194,-5.41786 -9.1072,-8.12386 -15.5735,-8.12386 -6.5343,0 -11.7588,2.706 -15.6782,8.12386 -3.9249,5.33168 -5.8848,12.49613 -5.8848,21.49335 m -8.2739,0 c 0,-11.38155 2.7194,-20.53953 8.1639,-27.4685 5.4498,-6.84264 12.6705,-10.26698 21.673,-10.26698 9.0025,0 16.1919,3.42434 21.563,10.26698 5.4445,6.92897 8.1692,16.08695 8.1692,27.4685 0,11.22064 -2.7247,20.21787 -8.1692,26.98594 -5.3711,6.76792 -12.5605,10.14621 -21.563,10.14621 -9.0025,0 -16.2232,-3.37829 -21.673,-10.14621 -5.4445,-6.76807 -8.1639,-15.7653 -8.1639,-26.98594"
       id="path5467-3" />
    <path
       style="fill:#b3b3b3;fill-opacity:1;fill-rule:nonzero;stroke:none;stroke-width:1.40464;filter:url(#filter11466)"
       d="m 1264.7013,664.51255 v -72.59816 h 8.2739 l 33.1121,57.19484 v -57.19484 h 8.2741 v 72.59816 h -8.2741 l -33.1121,-57.07997 v 57.07997 z m 0,0"
       id="path5469-4" />
    <path
       style="fill:#b3b3b3;fill-opacity:1;fill-rule:nonzero;stroke:none;stroke-width:1.40464;filter:url(#filter11470)"
       d="m 1408.2429,634.65973 h 19.1629 l -9.5841,-31.40409 z m -17.3186,29.85282 21.5629,-72.59816 h 10.6742 l 21.5628,72.59816 h -8.2794 l -6.6444,-21.73471 h -23.9577 l -6.639,21.73471 z m 0,0"
       id="path5471-1" />
    <path
       style="fill:#b3b3b3;fill-opacity:1;fill-rule:nonzero;stroke:none;stroke-width:1.40464;filter:url(#filter11474)"
       d="m 1521.2871,664.51255 v -72.59816 h 8.2793 v 64.48005 h 34.7365 v 8.11811 z m 0,0"
       id="path5473-9" />
  </g>
  <g
     inkscape:label="Layer 1"
     inkscape:groupmode="layer"
     id="layer1"
     style="display:inline">
    <path
       style="fill:#ffffff;fill-opacity:1;fill-rule:nonzero;stroke:none;stroke-width:1.33333"
       d="M 355.2295,454.702 H 129.92223 V 132.40516 H 355.2295 v 55.24999 H 195.0837 v 81.49486 h 148.5885 v 50.21866 H 195.0837 v 80.07813 h 160.1458 z m 0,0"
       id="path5439" />
    <path
       style="fill:#ffffff;fill-opacity:1;fill-rule:nonzero;stroke:none;stroke-width:1.33333"
       d="M 124.58889,97.061397 H 1553.4534 V 46.571817 H 124.58889 c -47.411463,0.0156 -85.817713,38.41667 -85.838543,85.833343 v 316.39577 c 0.0208,47.41667 38.42708,85.81773 85.838543,85.83853 H 1467.6148 c 47.4167,-0.016 85.8178,-38.42186 85.8334,-85.83853 v 0 -316.39577 h -99.5676 l -54.7084,197.47391 -54.7031,-197.47391 H 1240.2243 V 454.6968 h 55.1823 V 183.70202 l 75.974,270.99478 h 55.5833 L 1502.943,183.70202 V 449.1916 c -0.25,19.33333 -15.9427,34.92186 -35.3282,34.9584 H 124.58889 C 105.07847,484.114 89.281597,468.31666 89.245127,448.80093 V 132.40516 c 0.0365,-19.50522 15.833343,-35.312513 35.343763,-35.343763"
       id="path5441" />
    <path
       style="fill:#ffffff;fill-opacity:1;fill-rule:nonzero;stroke:none;stroke-width:1.33333"
       d="m 578.4535,132.40516 v 249.68751 l -96.75,-249.68751 H 380.9691 V 454.702 h 61.9792 V 217.88947 L 535.4899,454.702 H 640.4326 V 132.40516 Z m 0,0"
       id="path5443" />
    <path
       style="fill:#ffffff;fill-opacity:1;fill-rule:nonzero;stroke:none;stroke-width:1.33333"
       d="m 917.7867,254.26454 v -51.62501 c 0,-38.79167 -31.4478,-70.23437 -70.2394,-70.23437 H 739.1357 c -38.7916,0 -70.2343,31.4427 -70.2343,70.23437 V 384.4676 c 0,38.78653 31.4427,70.2292 70.2343,70.2292 h 108.4116 c 38.7916,0 70.2394,-31.44267 70.2394,-70.2292 v -64.16146 h -62.6926 v 51.65626 c 0,15.86467 -12.8542,28.7188 -28.7188,28.7188 h -50.875 c -29.1875,0 -52.8489,-23.66146 -52.8489,-52.85933 V 229.81134 c 0,-23.96869 19.4271,-43.39057 43.3854,-43.39057 h 60.3385 c 15.8646,0 28.7188,12.85417 28.7188,28.71876 v 39.12501 z m 0,0"
       id="path5445" />
    <path
       style="fill:#ffffff;fill-opacity:1;fill-rule:nonzero;stroke:none;stroke-width:1.33333"
       d="m 1150.0941,347.82187 c 0,11.3124 -3.802,21.776 -10.2135,30.36973 -10.1303,13.58854 -26.8439,22.4948 -45.7865,22.4948 h -37.7916 c -18.9428,0 -35.6511,-8.90626 -45.7866,-22.4948 -6.4114,-8.59893 -10.2082,-19.05733 -10.2082,-30.36973 V 229.81134 c 0,-13.76557 6.802,-26.00515 17.3905,-33.95307 7.8491,-5.89584 17.7657,-9.4375 28.5729,-9.4375 h 57.8543 c 10.8124,0 20.7239,3.54166 28.5728,9.4375 10.5833,7.94792 17.3959,20.1875 17.3959,33.95307 z m 53.5937,-166.06777 c -9.4167,-28.59375 -37.6719,-49.34894 -71.0624,-49.34894 h -114.8491 c -21.8333,0 -41.4009,8.92708 -55.0208,23.0677 -12.0052,12.46875 -19.3906,28.98437 -19.3906,47.16667 V 384.4676 c 0,18.1824 7.3854,34.6928 19.3906,47.16667 13.6199,14.13546 33.1875,23.06253 55.0208,23.06253 h 114.8491 c 33.3905,0 61.6457,-20.7552 71.0624,-49.34373 2.1771,-6.59893 3.3489,-13.61453 3.3489,-20.88547 V 202.63953 c 0,-7.27084 -1.1718,-14.28647 -3.3489,-20.88543"
       id="path5447" />
    <path
       style="fill:#ffffff;fill-opacity:1;fill-rule:nonzero;stroke:none;stroke-width:1.33333"
       d="m 69.318047,591.77493 h 8.22918 v 65.81773 h -8.22918 z m 0,0"
       id="path5449" />
    <path
       style="fill:#ffffff;fill-opacity:1;fill-rule:nonzero;stroke:none;stroke-width:1.33333"
       d="m 158.516,657.59266 v -65.81253 h 8.2291 l 32.9063,51.84893 v -51.84893 h 8.2292 v 65.81253 h -8.2292 l -32.9063,-51.7448 v 51.7448 z m 0,0"
       id="path5451" />
    <path
       style="fill:#ffffff;fill-opacity:1;fill-rule:nonzero;stroke:none;stroke-width:1.33333"
       d="m 283.8701,599.13946 v -7.36453 h 49.3594 v 7.36453 h -20.6719 v 58.4532 h -8.2291 v -58.4532 z m 0,0"
       id="path5453" />
    <path
       style="fill:#ffffff;fill-opacity:1;fill-rule:nonzero;stroke:none;stroke-width:1.33333"
       d="m 409.1149,657.59266 v -65.81253 h 45.25 v 7.79173 h -37.026 v 20.13533 h 32.9114 v 7.79174 h -32.9114 v 22.2968 h 37.026 v 7.79693 z m 0,0"
       id="path5455" />
    <path
       style="fill:#ffffff;fill-opacity:1;fill-rule:nonzero;stroke:none;stroke-width:1.33333"
       d="m 539.443,623.17079 h 20.1355 c 3.9687,0 7.1822,-1.09373 9.6354,-3.27613 2.3802,-2.2552 3.5729,-5.20827 3.5729,-8.85413 0,-3.56254 -1.1927,-6.44267 -3.5729,-8.62494 -2.4532,-2.18226 -5.6667,-3.27613 -9.6354,-3.27613 H 539.443 Z m -8.2239,34.42187 v -65.81773 h 28.3594 c 6.4948,0 11.6927,1.7708 15.5885,5.31253 3.8958,3.47387 5.8437,8.13013 5.8437,13.9844 0,3.61453 -0.9374,6.90093 -2.8124,9.86453 -2.0209,2.9636 -4.6563,5.05734 -7.9011,6.28641 2.3802,1.65626 4.2552,3.6772 5.6302,6.05213 1.4427,2.5208 2.1615,5.15107 2.1615,7.89067 l 0.4323,12.75 c 0,0.72386 0.3958,1.69266 1.1927,2.91666 l 0.4323,0.7604 h -8.224 l -0.2187,-0.43226 c -0.9375,-1.58854 -1.4063,-2.81254 -1.4063,-3.6824 l -0.4323,-12.33854 c 0,-3.17706 -1.4114,-5.776 -4.2239,-7.7916 -2.599,-1.88026 -5.7032,-2.81773 -9.3073,-2.81773 H 539.443 v 27.06253 z m 0,0"
       id="path5457" />
    <path
       style="fill:#ffffff;fill-opacity:1;fill-rule:nonzero;stroke:none;stroke-width:1.33333"
       d="m 658.9535,657.59266 v -65.81253 h 8.2239 l 32.9115,51.84893 v -51.84893 h 8.2239 v 65.81253 h -8.2239 l -32.9115,-51.7448 v 51.7448 z m 0,0"
       id="path5459" />
    <path
       style="fill:#ffffff;fill-opacity:1;fill-rule:nonzero;stroke:none;stroke-width:1.33333"
       d="m 801.6201,630.53013 h 19.0521 l -9.5208,-28.4688 z m -17.2083,27.06253 21.4323,-65.81253 h 10.6093 l 21.4324,65.81253 h -8.2292 l -6.5989,-19.7032 h -23.8178 l -6.6042,19.7032 z m 0,0"
       id="path5461" />
    <path
       style="fill:#ffffff;fill-opacity:1;fill-rule:nonzero;stroke:none;stroke-width:1.33333"
       d="m 909.0055,599.13946 v -7.36453 h 49.3594 v 7.36453 H 937.693 v 58.4532 h -8.2291 v -58.4532 z m 0,0"
       id="path5463" />
    <path
       style="fill:#ffffff;fill-opacity:1;fill-rule:nonzero;stroke:none;stroke-width:1.33333"
       d="m 1034.2503,591.77493 h 8.224 v 65.81773 h -8.224 z m 0,0"
       id="path5465" />
    <path
       style="fill:#ffffff;fill-opacity:1;fill-rule:nonzero;stroke:none;stroke-width:1.33333"
       d="m 1128.5315,624.68639 c 0,7.93747 1.948,14.32294 5.8491,19.15627 3.8957,4.7656 9.0885,7.14587 15.5833,7.14587 6.4271,0 11.5834,-2.38027 15.4791,-7.14587 3.9011,-4.83333 5.8437,-11.2188 5.8437,-19.15627 0,-8.15626 -1.9426,-14.65106 -5.8437,-19.4844 -3.8957,-4.91146 -9.052,-7.36453 -15.4791,-7.36453 -6.4948,0 -11.6876,2.45307 -15.5833,7.36453 -3.9011,4.83334 -5.8491,11.32814 -5.8491,19.4844 m -8.2238,0 c 0,-10.31773 2.703,-18.61973 8.1145,-24.90106 5.4167,-6.20307 12.5937,-9.30734 21.5417,-9.30734 8.9479,0 16.0938,3.10427 21.4323,9.30734 5.4115,6.28133 8.1197,14.58333 8.1197,24.90106 0,10.17187 -2.7082,18.32814 -8.1197,24.46361 -5.3385,6.13533 -12.4844,9.19786 -21.4323,9.19786 -8.948,0 -16.125,-3.06253 -21.5417,-9.19786 -5.4115,-6.13547 -8.1145,-14.29174 -8.1145,-24.46361"
       id="path5467" />
    <path
       style="fill:#ffffff;fill-opacity:1;fill-rule:nonzero;stroke:none;stroke-width:1.33333"
       d="m 1257.4587,657.59266 v -65.81253 h 8.2239 l 32.9115,51.84893 v -51.84893 h 8.224 v 65.81253 h -8.224 l -32.9115,-51.7448 v 51.7448 z m 0,0"
       id="path5469" />
    <path
       style="fill:#ffffff;fill-opacity:1;fill-rule:nonzero;stroke:none;stroke-width:1.33333"
       d="m 1400.1306,630.53013 h 19.0468 l -9.526,-28.4688 z m -17.2136,27.06253 21.4322,-65.81253 h 10.6095 l 21.4323,65.81253 h -8.2292 l -6.6042,-19.7032 h -23.8125 l -6.5989,19.7032 z m 0,0"
       id="path5471" />
    <path
       style="fill:#ffffff;fill-opacity:1;fill-rule:nonzero;stroke:none;stroke-width:1.33333"
       d="m 1512.4899,657.59266 v -65.81253 h 8.2292 v 58.4532 h 34.526 v 7.35933 z m 0,0"
       id="path5473" />
  </g>
</svg>
